<?xml version="1.0" encoding="UTF-8" standalone="no"?><!DOCTYPE svg PUBLIC "-//W3C//DTD SVG 1.1//EN" "http://www.w3.org/Graphics/SVG/1.1/DTD/svg11.dtd"><svg width="100%" height="100%" viewBox="0 0 600 600" version="1.1" xmlns="http://www.w3.org/2000/svg" xmlns:xlink="http://www.w3.org/1999/xlink" xml:space="preserve" xmlns:serif="http://www.serif.com/" style="fill-rule:evenodd;clip-rule:evenodd;stroke-linejoin:round;stroke-miterlimit:2;"><g id="Sfondo"><g><path d="M278.364,47.182c-30.802,-0.416 -84.96,10.194 -127.742,37.787c-16.862,10.876 -46.286,30.386 -75.048,71.329c-23.002,32.745 -38.933,76.899 -42.498,107.334c-1.049,8.958 -1.759,8.87 -2.433,24.644c-0.373,8.721 -0.485,8.666 -0.178,17.421c1.272,36.306 4.796,43.81 9.747,66.009c0.169,0.758 6.224,19.014 7.795,22.771c6.528,15.613 17.142,42.447 49.364,78.978c9.885,11.206 34.66,32.746 52.636,43.378c36.664,21.686 38.736,18.837 49.593,23.931c1.374,0.645 0.372,1.083 -1.763,6.939c-3.417,9.374 -3.73,11.716 -5.28,11.153c-20.653,-7.508 -44.456,-19.346 -57.279,-28.323c-2.963,-2.074 -15.421,-9.698 -33.101,-25.201c-18.238,-15.992 -34.659,-37.726 -37.344,-41.279c-31.542,-41.747 -42.523,-84.383 -44.568,-92.326c-7.246,-28.135 -11.074,-53.717 -8.624,-88.251c5.404,-76.156 37.585,-122.089 45.433,-134.103c23.573,-36.086 50.97,-57.313 63.461,-67.527c0.307,-0.251 25.174,-17.406 38.232,-23.747c29.319,-14.237 55.409,-26.505 117.177,-30.662c0.17,-0.011 31.343,-0.15 47.437,2.728c36.029,6.444 72.106,13.506 125.989,52.34c20.502,14.776 39.887,36.895 43,40.447c45.146,51.514 57.12,109.596 59.892,119.681c0.044,0.159 3.931,21.149 4.336,25.817c0.575,6.635 0.626,6.618 0.673,7.194c1.335,16.196 0.824,16.185 1.2,28.85c0.041,1.384 1.25,2.916 -0.848,2.954c-17.767,0.327 -18.556,0.351 -18.647,-1.14c-0.4,-6.622 0.469,-14.38 -1.442,-31.207c-2.94,-25.896 -4.705,-30.051 -8.947,-45.616c-8.62,-31.629 -24.741,-57.195 -27.629,-61.775c-13.818,-21.913 -29.528,-43.514 -63.049,-69.514c-18.11,-14.047 -41,-25.056 -44.764,-26.866c-8.457,-4.067 -55.902,-26.885 -114.784,-24.147Z" style="fill:#fff;"/><path d="M326.201,257.215c-1.261,-0.07 -1.103,0.452 -0.746,1.613c0.376,1.224 2.34,7.615 3.589,15.602c1.218,7.79 4.399,20.49 3.875,20.962c-7.11,6.406 -7.286,6.122 -14.447,12.533c-0.592,0.53 -1.519,1.012 -6.885,-7.156c-0.438,-0.667 -5.338,-8.126 -5.47,-8.35c-0.503,-0.85 -4.314,-7.291 -5.897,-10.852c-16.951,-38.124 0.46,-52.292 16.04,-101.964c9.84,-31.374 6.534,-61.359 6.569,-64.881c0.009,-0.892 -0.069,-1.204 8.564,-6.31c5.625,-3.327 21.328,-7.442 26.27,-7.806c27.305,-2.014 40.624,4.708 48.704,8.545c17.279,8.207 28.763,23.956 30.227,26.428c6.152,10.387 11.137,17.814 13.759,34.955c2.472,16.164 -0.558,30.024 -1.37,30.231c-1.197,0.305 -33.782,-9.37 -36.704,-10.237c-0.11,-0.033 -5.8,-1.303 -1.092,0.921c5.979,2.825 6.09,2.446 12.05,5.278c23.63,11.23 24.069,11.169 24.128,12.274c0.577,10.823 2.575,24.606 2.249,25.302c-0.879,1.876 -1.302,-0.603 -14.09,-13.076c-14.355,-14.001 -43.964,-32.562 -56.224,-30.018c-1.082,0.225 -4.025,0.835 -9.954,9.583c-15.385,22.7 -16.356,30.086 -17.154,33.432c-2.335,9.785 -2.402,12.057 0.126,14.952c3.408,3.902 41.401,23.038 41.471,23.464c0.136,0.822 -0.359,0.837 -33.66,12.869c-19.553,7.065 -19.592,7.474 -20.556,7.071c-1.084,-0.453 -0.784,-0.83 -13.371,-35.364Zm31.754,-77.063c0.014,-0.792 0.123,-1.581 0.137,-2.373c0.226,-13.226 -22.44,-6.237 -19.473,10.778c0.524,3.005 5.672,4.555 8.225,3.677c8.713,-2.997 10.776,-10.813 11.111,-12.083Z" style="fill:#fff;"/><path d="M240.533,179.863c18.572,1.301 29.49,4.163 61.405,-28.367c1.964,-2.002 11.161,-13.171 9.97,-7.363c-0.507,2.474 0.892,26.49 -7.261,52.213c-2.398,7.566 -3.412,14.766 -16.042,36.704c-2.715,4.716 -1.364,-4.242 -12.904,-20.845c-5.39,-7.754 -17.302,-16.062 -29.746,-17.751c-2.237,-0.304 -11.219,-1.523 -28.205,1.007c-4.116,0.613 -22.276,4.663 -22.909,7.534c-0.519,2.352 2.204,2.254 1.978,30.04c-0.002,0.249 -1.243,14.199 -1.304,14.42c-0.181,0.654 -0.162,0.649 -1.325,8.382c-1.505,10.009 -3.538,-11.386 -4.526,-15.039c-0.784,-2.898 -2.652,-16.887 -10.573,-21.886c-5.277,-3.331 -9.604,8.307 -9.986,9.332c-5.572,14.985 -4.966,29.696 -5.572,31.772c-0.275,0.943 1.941,15.2 -1.037,12.026c-0.29,-0.31 -2.342,-12.056 -6.288,-17.195c-13.802,-17.979 -20.505,-8.291 -23.808,-5.028c-2.765,2.73 -3.161,2.381 -4.018,3.211c-17.201,16.675 -37.433,34.631 -39.436,53.239c-0.841,7.82 -1.602,13.066 6.218,24.683c0.135,0.2 2.15,1.496 1.161,2.291c-1.801,1.448 -15.584,-7.195 -18.269,-10.965c-0.105,-0.147 -2.325,-3.264 -2.05,-0.959c2.789,23.35 9.831,50.768 42.22,76.011c10.552,8.224 25.217,12.933 25.261,14.059c0.118,3.039 -28.804,-3.411 -42.335,-14.942c-5.431,-4.629 -25.415,-16.075 -36.101,-57.685c-0.157,-0.611 0.032,-0.633 -1.316,-7.78c-0.384,-2.038 -2.31,-12.244 -1.156,-25.897c2.708,-32.058 42.133,-43.384 64.357,-62.547c19.696,-16.984 26.375,-28.103 31.562,-32.027c4.904,-3.71 20.368,-24.296 52.622,-30.249c2.937,-0.542 19.553,-2.353 27.57,-0.491c0.144,0.033 0.137,0.007 1.844,0.094Z" style="fill:#fff;"/><path d="M582.078,362.608c-0.014,-0.889 -0.13,-0.88 -0.898,-1.269c-0.758,-0.384 -6.679,-3.483 -7.317,-3.545c-1.762,-0.172 -1.619,0.49 -19.107,11.177l-49.243,30.038c-221.44,134.648 -221.164,135.088 -240.431,146.776c-1.108,0.672 -9.103,-3.49 -9.161,-4c-0.158,-1.402 11.735,-7.624 15.783,-10.366c1.276,-0.864 5.725,-3.538 6.227,-3.84c86.533,-52.002 85.776,-53.134 172.35,-105.116c46.459,-27.896 45.941,-28.657 92.499,-56.432c25.052,-14.945 25.12,-16.191 26.786,-15.167c4.052,2.491 18.491,8.297 18.534,9.5c0.303,8.435 1.187,8.395 0.958,9.089c-0.171,0.518 -27.957,19.028 -30.405,20.659c-14.226,9.477 -255.402,171.952 -259.225,174.492c-10.642,7.07 -10.325,7.569 -11.373,7.93c-0.855,0.295 -4.412,-1.443 -4.775,-1.62c-45.737,-22.349 -45.953,-21.895 -49.861,-23.972c-2.697,-1.433 2.052,-2.264 3.481,-2.38c9.063,-0.74 11.003,-3.23 15.12,-1.201c5.508,2.715 13.149,6.312 14.296,6.852c21.745,10.237 21.834,10.793 22.908,10.227c0.97,-0.511 35.719,-24.072 38.819,-26.174c20.301,-13.765 227.979,-154.579 254.033,-171.658Z" style="fill:#fff;"/><path d="M296.344,425.824c9.246,8.992 20.383,5.188 16.447,9.18c-1.658,1.682 -1.286,1.971 -5.095,5.719c-0.672,0.661 -4.698,3.37 -5.312,3.278c-7.372,-1.106 -7.322,-1.342 -13.818,-4.938c-3.851,-2.132 2.222,3.814 2.495,4.082c1.865,1.826 4.98,3.304 2.836,4.059c-3.981,1.402 -9.843,2.048 -10.712,2.144c-14.559,1.605 -22.29,-3.271 -25.837,-4.915c-6.396,-2.965 -16.004,-12.696 -17.251,-13.959c-4.634,-4.693 -10.102,-16.746 -10.04,-23.276c0.098,-10.384 -0.004,-10.397 2.551,-20.448c0.06,-0.234 3.228,-9.47 9.331,-16.61c8.339,-9.757 20.173,-14.913 30.532,-19.726c6.108,-2.838 13.81,-3.304 14.703,-1.381c1.838,3.956 3.641,9.991 8.021,19.123c0.829,1.729 -3.889,2.033 -6.559,5.457c-1.033,1.324 -3.038,7.06 4.107,9.66c49.01,17.834 53.66,7.805 59.283,12.741c5.075,4.456 5.173,14.161 -2.791,14.229c-17.924,0.152 -29.198,2.225 -46.827,-3.699c-7.697,-2.587 -8.167,-3.049 -8.171,-2.368c-0.006,1.292 12.173,8.704 17.129,9.257c4.789,0.534 6.87,0.731 6.763,2.188c-0.176,2.388 -0.32,13.488 -3.127,13.347c-16.664,-0.839 -16.034,-4.139 -18.597,-4.079c-0.726,0.017 -0.386,0.341 -0.062,0.938Z" style="fill:#fff;"/><path d="M168.275,330.606c-27.974,-8.41 -32.534,-6.466 -50.835,-4.249c-3.66,0.443 -13.686,5.218 -12.2,2.083c0.109,-0.229 8.438,-5.798 9.094,-6.088c28.946,-12.831 39.543,-8.911 36.961,-11.387c-9.437,-9.054 -8.971,-19.071 -8.93,-23.3c0.084,-8.603 2.951,10.228 19.035,19.592c7.402,4.31 96.722,44.439 97.004,45.35c0.768,2.477 -5.874,0.554 -20.701,16.297c-1.811,1.923 -15.335,21.086 -9.957,43.747c0.451,1.902 2.464,6.581 0.088,5.545c-0.02,-0.009 -5.555,-8.29 -5.513,-22.412c0.084,-28.389 18.382,-41.07 18.342,-42.053c-0.051,-1.233 -0.701,-0.849 -13.955,-6.565c-3.453,-1.489 -17.301,12.424 -19.556,15.19c-29.277,35.914 -16.724,64.69 -21.896,59.276c-0.57,-0.597 -9.995,-31.192 0.981,-66.743c0.058,-0.187 1.37,-4.436 -0.399,-2.42c-6.526,7.44 -7.129,6.879 -14.019,16.1c-0.376,0.503 -3.425,5.413 -3.766,2.556c-0.655,-5.492 2.426,-22.036 10.829,-29.881c1.537,-1.435 -0.522,-0.855 -2.575,-0.526c-0.399,0.064 -3.405,-0.112 -23.392,7.195c-5.054,1.848 -14.142,7.947 -11.96,4.082c0.48,-0.851 11.273,-14.154 25.164,-19.732c1.479,-0.594 2.211,-0.087 2.155,-1.659Z" style="fill:#fff;"/><path d="M400.884,267.504c-2.157,-0.082 -5.289,-0.201 -24.187,-11.959c-1.235,-0.769 -8.351,-5.196 -14.829,-10.529c-4.677,-3.85 0.17,-13.726 0.749,-14.905c0.539,-1.096 3.532,-7.184 7.914,-13.057c5.882,-7.883 11.47,-25.049 31.588,-13.506c14.865,8.529 25.26,18.586 27.413,20.134c0.076,0.055 9.28,8.228 9.861,10.533c1.108,4.393 -5.11,7.759 -9.314,12.434c-3.41,3.792 -10.705,9.737 -11.68,10.531c-7.45,6.071 -11.97,10 -17.515,10.323Zm-1.198,-5.285c8.832,-1.067 23.05,-16.756 28.721,-21.514c5.554,-4.66 4.485,-6.423 4.149,-6.979c-3.603,-5.945 -34.251,-31.453 -43.063,-29.442c-1.621,0.37 -6.286,-1.786 -20.097,22.011c-7.875,13.569 -4.918,15.318 1.307,19.571c5.403,3.691 5.217,3.89 10.867,7.146c1.722,0.993 12.136,8.125 18.115,9.206Z" style="fill:#fff;"/><path d="M541.358,355.259c1.729,-0.431 17.757,-4.429 21.678,-5.106c1.414,-0.244 1.788,0.885 0.807,1.429c-3.955,2.193 -3.899,2.269 -38.783,23.565c-20.388,12.447 -240.827,147.019 -254.949,155.429c-15.401,9.172 -15.158,9.95 -18.811,10.271c-7.202,0.632 -13.646,2.7 -14.319,2.033c-0.266,-0.263 -0.608,-0.816 3.39,-3.22c32.473,-19.533 246.462,-151.324 267.875,-164.512c31.598,-19.46 31.602,-19.531 33.111,-19.888Z" style="fill:#fff;"/><path d="M227.644,289.486c0.036,0.625 0.053,6.228 2.376,14.944c0.645,2.419 1.293,1.897 1.416,1.764c0.064,-0.069 9.443,-15.035 12.357,-23.231c10.349,-29.107 9.226,-36.034 9.881,-51.134c0.092,-2.131 1.901,-1.596 1.994,-0.613c1.854,19.66 7.8,42.401 -5.391,88.342c-1.455,5.067 -6.882,21.507 -8.537,21.475c-0.799,-0.015 -29.966,-13.436 -32.56,-14.63c-4.479,-2.061 -5.398,-8.837 -17.31,-21.284c-2.57,-2.686 -6.928,-6.414 -4.758,-7.003c2.106,-0.572 5.055,9.312 31.22,15.216c0.836,0.189 1.149,-0.553 0.981,-0.962c-2.114,-5.137 -3.972,-7.224 -3.802,-19.278c0.139,-9.837 5.854,-18.022 6.794,-19.369c0.489,-0.701 10.807,-15.478 8.483,-6.49c-2.269,8.772 -3.111,9.494 -3.143,22.255Z" style="fill:#fff;"/><path d="M323.448,387.736c-1.441,-0.342 -16.331,-3.878 -17.87,-4.836c-1.955,-1.217 -28.831,-67.833 -31.764,-76.065c-0.715,-2.007 10.81,-6.263 11.23,-6.168c0.752,0.17 0.436,0.489 5.045,8.214c31.951,53.543 37.719,73.411 41.33,78.367c1.909,2.62 -2.268,1.551 -7.971,0.489Z" style="fill:#fff;"/><path d="M422.778,308.704c-0.123,-1.624 0.054,-1.644 -0.365,-2.352c-4.521,-7.64 -11.55,1.771 -13.48,3.775c-9.504,9.866 -8.677,10.965 -9.858,11.01c-4.029,0.154 4.8,-5.767 12.955,-32.919c5.078,-16.906 3.569,-22.585 5.672,-22.616c0.402,-0.006 0.669,-0.01 1.955,4.624c10.828,39.036 23.848,53.554 29.12,61.394c11.444,17.021 30.22,36.461 30.385,37.712c0.343,2.599 -3.505,-1.033 -3.734,-1.249c-4.856,-4.583 -4.916,-4.479 -5.331,-4.883c-6.448,-6.276 -6.663,-6.031 -7.209,-6.589c-3.78,-3.866 -11.364,-10.148 -12.385,-10.993c-11.932,-9.882 -16.155,-8.865 -21.412,-5.715c-14.129,8.466 -14.349,8.322 -25.9,20.96c-0.878,0.961 -2.535,0.39 -1.586,-1.039c2.449,-3.687 20.172,-30.372 21.173,-51.121Z" style="fill:#fff;"/><path d="M350.764,437.264c2.61,9.415 2.15,14.874 2.318,20.369c0.151,4.939 -12.519,-7.471 -17.1,-13.77c-1.494,-2.054 -7.031,-9.667 -15.728,-27.579c-0.085,-0.175 -1.258,-2.59 0.732,-2.315c7.263,1.004 7.179,1.824 14.455,1.186c2.093,-0.183 8.583,-2.774 8.858,-0.721c0.934,6.973 4.527,13.233 6.466,22.83Z" style="fill:#fff;"/><path d="M360.368,309.919c0.242,4.777 0.481,20.062 11.463,32.019c0.962,1.047 -0.149,2.274 -1.635,1.073c-0.503,-0.407 -0.427,-0.475 -6.028,-5.387c-7.917,-6.944 -21.302,-10.51 -23.295,-11.04c-3.127,-0.833 -3.666,-0.237 -4.04,-1.676c-0.692,-2.659 10.265,-2.292 21.884,-23.483c0.13,-0.237 2.296,-4.187 2.909,-1.711c0.379,1.53 -1.55,1.353 -1.259,10.206Z" style="fill:#fff;"/><path d="M325.978,256.455c-0.094,-0.045 -2.367,-1.123 -0.755,-1.057c0.104,0.004 0.054,0.076 0.755,1.057Z" style="fill:#fff;"/></g></g></svg>